# xmcd
#
# Track frame offsets: 
#        150
#        15268
#        27623
#        41824
#        56344
#        73012
#        89005
#        102568
#        118028
#        139912
#        153438
#        170374
#        188355
#        202737
#        220564
#        241259
#        260141
#        276084
#        292627
#        309601
#        329352
#
# Disc length: 4543 seconds
#
# Revision: 0
# Processed by: cddbd v1.5.2PL0 Copyright (c) Steve Scherf et al.
# Submitted via: ExactAudioCopy v1.0b3
#
DISCID=2a11bd15
DTITLE=Steve Hofmeyr - 25 jaar se beste cd2
DYEAR=1900
DGENRE=
TTITLE0=Engele Om Ons
TTITLE1=Amper
TTITLE2=As Jy My Nou Kon Sien
TTITLE3=Maak Die Bulle Almal Bokke
TTITLE4=Die Bloubul
TTITLE5=Pampoen
TTITLE6=My Diefie My Dufie
TTITLE7=Kaapse Draai (Met Nadine)
TTITLE8=Prove Me Wrong (Prove Me Right)
TTITLE9=Waarmaker
TTITLE10=God Sê Bedelaar - (St Elmo's Fire)
TTITLE11=Windgat De Klerk
TTITLE12=FM Stereo
TTITLE13=Juliet
TTITLE14=Blou Ballon
TTITLE15=DKW
TTITLE16=Kol Op Die Maan
TTITLE17=Ons Sal Dit Oorleef
TTITLE18=Pa En Seun
TTITLE19=Lied Van My Hart
TTITLE20=Tjoklitbeksoentjies
EXTD=
EXTT0=
EXTT1=
EXTT2=
EXTT3=
EXTT4=
EXTT5=
EXTT6=
EXTT7=
EXTT8=
EXTT9=
EXTT10=
EXTT11=
EXTT12=
EXTT13=
EXTT14=
EXTT15=
EXTT16=
EXTT17=
EXTT18=
EXTT19=
EXTT20=
PLAYORDER=
